<svg width="20" height="20" viewBox="0 0 20 20" fill="none" xmlns="http://www.w3.org/2000/svg">
<g clip-path="url(#clip0_6_7042)">
<path d="M10 1.66665C11.1054 1.67028 12.1991 1.8931 13.2179 2.32222C14.2366 2.75135 15.1601 3.37825 15.935 4.16665H13.3333C13.1123 4.16665 12.9004 4.25445 12.7441 4.41073C12.5878 4.56701 12.5 4.77897 12.5 4.99998C12.5 5.221 12.5878 5.43296 12.7441 5.58924C12.9004 5.74552 13.1123 5.83332 13.3333 5.83332H16.7858C17.1962 5.8331 17.5897 5.66999 17.8798 5.37982C18.17 5.08966 18.3331 4.69617 18.3333 4.28582V0.833319C18.3333 0.612305 18.2455 0.400344 18.0892 0.244063C17.933 0.0877832 17.721 -1.41705e-05 17.5 -1.41705e-05C17.279 -1.41705e-05 17.067 0.0877832 16.9107 0.244063C16.7545 0.400344 16.6667 0.612305 16.6667 0.833319V2.56498C15.2893 1.32453 13.5938 0.491994 11.7701 0.16061C9.94634 -0.170774 8.06635 0.0120791 6.34066 0.688692C4.61496 1.3653 3.11168 2.50896 1.99918 3.99159C0.886678 5.47421 0.208874 7.23727 0.0416727 9.08331C0.0309088 9.19936 0.0444358 9.31638 0.0813917 9.42691C0.118348 9.53744 0.177922 9.63906 0.256319 9.7253C0.334717 9.81154 0.430218 9.8805 0.536737 9.92779C0.643257 9.97508 0.75846 9.99967 0.875005 9.99998C1.07883 10.0026 1.27628 9.92901 1.42872 9.79369C1.58116 9.65836 1.6776 9.47101 1.69917 9.26831C1.88468 7.19394 2.83915 5.2639 4.37507 3.85735C5.91099 2.4508 7.91735 1.6694 10 1.66665Z" fill="#2C2C2C"/>
<path d="M19.1259 10C18.9221 9.99741 18.7246 10.071 18.5722 10.2063C18.4198 10.3416 18.3233 10.529 18.3017 10.7317C18.164 12.3177 17.5742 13.8309 16.6023 15.0919C15.6304 16.3528 14.3172 17.3084 12.8185 17.8455C11.3199 18.3825 9.69858 18.4784 8.14704 18.1218C6.5955 17.7651 5.17883 16.9709 4.06508 15.8334H6.66675C6.88776 15.8334 7.09972 15.7456 7.256 15.5893C7.41228 15.433 7.50008 15.221 7.50008 15C7.50008 14.779 7.41228 14.567 7.256 14.4108C7.09972 14.2545 6.88776 14.1667 6.66675 14.1667H3.21425C3.011 14.1666 2.80972 14.2065 2.62192 14.2843C2.43412 14.362 2.26348 14.476 2.11976 14.6197C1.97604 14.7634 1.86205 14.9341 1.78432 15.1219C1.70659 15.3097 1.66664 15.5109 1.66675 15.7142V19.1667C1.66675 19.3877 1.75455 19.5997 1.91083 19.756C2.06711 19.9122 2.27907 20 2.50008 20C2.7211 20 2.93306 19.9122 3.08934 19.756C3.24562 19.5997 3.33342 19.3877 3.33342 19.1667V17.435C4.71077 18.6755 6.40626 19.508 8.23 19.8394C10.0537 20.1708 11.9337 19.9879 13.6594 19.3113C15.3851 18.6347 16.8884 17.4911 18.0009 16.0084C19.1134 14.5258 19.7912 12.7627 19.9584 10.9167C19.9692 10.8006 19.9557 10.6836 19.9187 10.5731C19.8817 10.4625 19.8222 10.3609 19.7438 10.2747C19.6654 10.1884 19.5699 10.1195 19.4634 10.0722C19.3568 10.0249 19.2416 10.0003 19.1251 10H19.1259Z" fill="#2C2C2C"/>
</g>
<defs>
<clipPath id="clip0_6_7042">
<rect width="20" height="20" fill="white"/>
</clipPath>
</defs>
</svg>
