<svg width="124" height="25" viewBox="0 0 124 25" fill="none" xmlns="http://www.w3.org/2000/svg">
<path d="M117.566 16.571C117.641 16.4954 117.705 16.4123 117.761 16.3256L123.575 10.5117C124.142 9.94422 124.142 9.02433 123.575 8.45662C123.007 7.88973 122.088 7.88919 121.52 8.45662L116.513 13.4637L111.48 8.43133C110.912 7.86417 109.993 7.8639 109.425 8.43133C109.142 8.71545 108.999 9.08702 109 9.45858C108.999 9.83041 109.142 10.2022 109.426 10.4853L115.265 16.3254C115.321 16.4123 115.385 16.4951 115.461 16.571C115.751 16.861 116.133 17.0007 116.513 16.994C116.893 17.001 117.276 16.861 117.566 16.571Z" fill="#2C2C2C"/>
<path d="M5.76 18.18C4.956 18.18 4.17 18.09 3.402 17.91C2.646 17.73 1.986 17.46 1.422 17.1C1.146 16.92 0.978 16.698 0.918 16.434C0.858 16.17 0.876 15.924 0.972 15.696C1.08 15.456 1.242 15.294 1.458 15.21C1.686 15.114 1.944 15.156 2.232 15.336C2.76 15.648 3.318 15.876 3.906 16.02C4.494 16.164 5.112 16.236 5.76 16.236C6.708 16.236 7.398 16.08 7.83 15.768C8.262 15.444 8.478 15.03 8.478 14.526C8.478 14.106 8.322 13.776 8.01 13.536C7.71 13.296 7.188 13.098 6.444 12.942L4.464 12.528C2.208 12.048 1.08 10.89 1.08 9.054C1.08 8.262 1.29 7.572 1.71 6.984C2.13 6.396 2.712 5.94 3.456 5.616C4.2 5.292 5.058 5.13 6.03 5.13C6.75 5.13 7.434 5.22 8.082 5.4C8.73 5.58 9.312 5.844 9.828 6.192C10.068 6.36 10.212 6.57 10.26 6.822C10.308 7.062 10.278 7.29 10.17 7.506C10.062 7.71 9.888 7.854 9.648 7.938C9.42 8.01 9.15 7.956 8.838 7.776C8.394 7.524 7.944 7.344 7.488 7.236C7.032 7.128 6.54 7.074 6.012 7.074C5.184 7.074 4.536 7.248 4.068 7.596C3.6 7.944 3.366 8.4 3.366 8.964C3.366 9.396 3.51 9.744 3.798 10.008C4.086 10.26 4.578 10.458 5.274 10.602L7.236 11.016C8.424 11.268 9.306 11.664 9.882 12.204C10.47 12.744 10.764 13.464 10.764 14.364C10.764 15.12 10.56 15.786 10.152 16.362C9.744 16.938 9.162 17.388 8.406 17.712C7.662 18.024 6.78 18.18 5.76 18.18ZM16.5395 18.18C15.6275 18.18 14.8355 17.994 14.1635 17.622C13.4915 17.25 12.9695 16.722 12.5975 16.038C12.2255 15.342 12.0395 14.526 12.0395 13.59C12.0395 12.654 12.2255 11.844 12.5975 11.16C12.9695 10.476 13.4915 9.948 14.1635 9.576C14.8355 9.204 15.6275 9.018 16.5395 9.018C17.4515 9.018 18.2435 9.204 18.9155 9.576C19.5875 9.948 20.1095 10.476 20.4815 11.16C20.8535 11.844 21.0395 12.654 21.0395 13.59C21.0395 14.526 20.8535 15.342 20.4815 16.038C20.1095 16.722 19.5875 17.25 18.9155 17.622C18.2435 17.994 17.4515 18.18 16.5395 18.18ZM16.5395 16.47C17.2115 16.47 17.7515 16.23 18.1595 15.75C18.5675 15.258 18.7715 14.538 18.7715 13.59C18.7715 12.63 18.5675 11.916 18.1595 11.448C17.7515 10.968 17.2115 10.728 16.5395 10.728C15.8675 10.728 15.3275 10.968 14.9195 11.448C14.5115 11.916 14.3075 12.63 14.3075 13.59C14.3075 14.538 14.5115 15.258 14.9195 15.75C15.3275 16.23 15.8675 16.47 16.5395 16.47ZM25.9026 18.18C23.8986 18.18 22.8966 17.058 22.8966 14.814V6.3C22.8966 5.544 23.2686 5.166 24.0126 5.166C24.7686 5.166 25.1466 5.544 25.1466 6.3V14.706C25.1466 15.786 25.5966 16.326 26.4966 16.326C26.5926 16.326 26.6826 16.326 26.7666 16.326C26.8506 16.314 26.9346 16.302 27.0186 16.29C27.1866 16.266 27.3006 16.314 27.3606 16.434C27.4206 16.542 27.4506 16.77 27.4506 17.118C27.4506 17.418 27.3906 17.652 27.2706 17.82C27.1506 17.988 26.9526 18.09 26.6766 18.126C26.4246 18.162 26.1666 18.18 25.9026 18.18ZM31.8306 18.18C29.6706 18.18 28.5906 16.968 28.5906 14.544V10.188C28.5906 9.432 28.9626 9.054 29.7066 9.054C30.4626 9.054 30.8406 9.432 30.8406 10.188V14.58C30.8406 15.204 30.9666 15.666 31.2186 15.966C31.4706 16.266 31.8726 16.416 32.4246 16.416C33.0246 16.416 33.5166 16.212 33.9006 15.804C34.2846 15.384 34.4766 14.832 34.4766 14.148V10.188C34.4766 9.432 34.8486 9.054 35.5926 9.054C36.3486 9.054 36.7266 9.432 36.7266 10.188V16.992C36.7266 17.76 36.3606 18.144 35.6286 18.144C34.8966 18.144 34.5306 17.76 34.5306 16.992V16.686C33.9426 17.682 33.0426 18.18 31.8306 18.18ZM42.2904 18.18C41.7744 18.18 41.2284 18.126 40.6524 18.018C40.0764 17.91 39.5604 17.724 39.1044 17.46C38.8524 17.316 38.6964 17.142 38.6364 16.938C38.5764 16.722 38.5824 16.524 38.6544 16.344C38.7384 16.152 38.8704 16.014 39.0504 15.93C39.2424 15.846 39.4644 15.864 39.7164 15.984C40.1964 16.212 40.6464 16.374 41.0664 16.47C41.4864 16.554 41.9004 16.596 42.3084 16.596C42.8844 16.596 43.3104 16.5 43.5864 16.308C43.8744 16.104 44.0184 15.84 44.0184 15.516C44.0184 15.012 43.6464 14.688 42.9024 14.544L41.1024 14.202C39.5784 13.914 38.8164 13.122 38.8164 11.826C38.8164 11.25 38.9724 10.752 39.2844 10.332C39.6084 9.912 40.0524 9.588 40.6164 9.36C41.1804 9.132 41.8284 9.018 42.5604 9.018C43.6164 9.018 44.5584 9.252 45.3864 9.72C45.6144 9.84 45.7464 10.008 45.7824 10.224C45.8304 10.428 45.8064 10.626 45.7104 10.818C45.6264 10.998 45.4884 11.13 45.2964 11.214C45.1044 11.286 44.8824 11.262 44.6304 11.142C44.2584 10.95 43.8984 10.812 43.5504 10.728C43.2144 10.644 42.8904 10.602 42.5784 10.602C41.9904 10.602 41.5524 10.704 41.2644 10.908C40.9884 11.112 40.8504 11.382 40.8504 11.718C40.8504 12.246 41.1924 12.57 41.8764 12.69L43.6764 13.032C44.4564 13.176 45.0444 13.44 45.4404 13.824C45.8484 14.208 46.0524 14.724 46.0524 15.372C46.0524 16.248 45.7104 16.938 45.0264 17.442C44.3424 17.934 43.4304 18.18 42.2904 18.18ZM48.9735 7.398C48.5535 7.398 48.2235 7.296 47.9835 7.092C47.7555 6.876 47.6415 6.582 47.6415 6.21C47.6415 5.826 47.7555 5.532 47.9835 5.328C48.2235 5.124 48.5535 5.022 48.9735 5.022C49.8615 5.022 50.3055 5.418 50.3055 6.21C50.3055 7.002 49.8615 7.398 48.9735 7.398ZM48.9735 18.126C48.6135 18.126 48.3375 18.018 48.1455 17.802C47.9535 17.586 47.8575 17.286 47.8575 16.902V10.296C47.8575 9.48 48.2295 9.072 48.9735 9.072C49.7295 9.072 50.1075 9.48 50.1075 10.296V16.902C50.1075 17.286 50.0115 17.586 49.8195 17.802C49.6275 18.018 49.3455 18.126 48.9735 18.126ZM58.7001 18.144C57.9321 18.144 57.5481 17.748 57.5481 16.956V6.336C57.5481 5.556 57.9321 5.166 58.7001 5.166C59.4681 5.166 59.8521 5.556 59.8521 6.336V10.926H59.8881L65.0541 5.742C65.2461 5.55 65.4381 5.406 65.6301 5.31C65.8221 5.214 66.0381 5.166 66.2781 5.166C66.6261 5.166 66.8721 5.256 67.0161 5.436C67.1721 5.616 67.2321 5.826 67.1961 6.066C67.1721 6.306 67.0581 6.528 66.8541 6.732L62.1201 11.412L67.1061 16.47C67.3581 16.71 67.4901 16.962 67.5021 17.226C67.5141 17.49 67.4301 17.712 67.2501 17.892C67.0821 18.06 66.8301 18.144 66.4941 18.144C66.2061 18.144 65.9721 18.084 65.7921 17.964C65.6241 17.844 65.4261 17.67 65.1981 17.442L59.8881 12.132H59.8521V16.956C59.8521 17.748 59.4681 18.144 58.7001 18.144ZM72.2008 18.18C71.5648 18.18 70.9948 18.06 70.4908 17.82C69.9988 17.568 69.6088 17.232 69.3208 16.812C69.0448 16.392 68.9068 15.918 68.9068 15.39C68.9068 14.742 69.0748 14.232 69.4108 13.86C69.7468 13.476 70.2928 13.2 71.0488 13.032C71.8048 12.864 72.8188 12.78 74.0908 12.78H74.7208V12.402C74.7208 11.802 74.5888 11.37 74.3248 11.106C74.0608 10.842 73.6168 10.71 72.9928 10.71C72.6448 10.71 72.2668 10.752 71.8588 10.836C71.4628 10.92 71.0428 11.064 70.5988 11.268C70.3108 11.4 70.0708 11.418 69.8788 11.322C69.6868 11.214 69.5548 11.052 69.4828 10.836C69.4228 10.608 69.4348 10.38 69.5188 10.152C69.6148 9.924 69.8008 9.756 70.0768 9.648C70.6288 9.42 71.1568 9.258 71.6608 9.162C72.1768 9.066 72.6448 9.018 73.0648 9.018C74.3488 9.018 75.3028 9.318 75.9268 9.918C76.5508 10.506 76.8628 11.424 76.8628 12.672V16.992C76.8628 17.76 76.5148 18.144 75.8188 18.144C75.1108 18.144 74.7568 17.76 74.7568 16.992V16.596C74.5528 17.088 74.2288 17.478 73.7848 17.766C73.3408 18.042 72.8128 18.18 72.2008 18.18ZM72.6688 16.632C73.2568 16.632 73.7428 16.428 74.1268 16.02C74.5228 15.612 74.7208 15.096 74.7208 14.472V14.076H74.1088C72.9808 14.076 72.1948 14.166 71.7508 14.346C71.3188 14.514 71.1028 14.826 71.1028 15.282C71.1028 15.678 71.2408 16.002 71.5168 16.254C71.7928 16.506 72.1768 16.632 72.6688 16.632ZM80.2986 18.144C79.5546 18.144 79.1826 17.76 79.1826 16.992V10.188C79.1826 9.432 79.5486 9.054 80.2806 9.054C81.0126 9.054 81.3786 9.432 81.3786 10.188V10.548C81.6426 10.068 82.0086 9.696 82.4766 9.432C82.9446 9.156 83.4846 9.018 84.0966 9.018C85.4166 9.018 86.2806 9.594 86.6886 10.746C86.9646 10.206 87.3606 9.786 87.8766 9.486C88.3926 9.174 88.9806 9.018 89.6406 9.018C91.6206 9.018 92.6106 10.224 92.6106 12.636V16.992C92.6106 17.76 92.2326 18.144 91.4766 18.144C90.7326 18.144 90.3606 17.76 90.3606 16.992V12.726C90.3606 12.054 90.2466 11.562 90.0186 11.25C89.8026 10.938 89.4306 10.782 88.9026 10.782C88.3146 10.782 87.8526 10.992 87.5166 11.412C87.1806 11.82 87.0126 12.39 87.0126 13.122V16.992C87.0126 17.76 86.6406 18.144 85.8966 18.144C85.1406 18.144 84.7626 17.76 84.7626 16.992V12.726C84.7626 12.054 84.6486 11.562 84.4206 11.25C84.2046 10.938 83.8386 10.782 83.3226 10.782C82.7346 10.782 82.2726 10.992 81.9366 11.412C81.6006 11.82 81.4326 12.39 81.4326 13.122V16.992C81.4326 17.76 81.0546 18.144 80.2986 18.144ZM96.0477 7.398C95.6277 7.398 95.2977 7.296 95.0577 7.092C94.8297 6.876 94.7157 6.582 94.7157 6.21C94.7157 5.826 94.8297 5.532 95.0577 5.328C95.2977 5.124 95.6277 5.022 96.0477 5.022C96.9357 5.022 97.3797 5.418 97.3797 6.21C97.3797 7.002 96.9357 7.398 96.0477 7.398ZM96.0477 18.126C95.6877 18.126 95.4117 18.018 95.2197 17.802C95.0277 17.586 94.9317 17.286 94.9317 16.902V10.296C94.9317 9.48 95.3037 9.072 96.0477 9.072C96.8037 9.072 97.1817 9.48 97.1817 10.296V16.902C97.1817 17.286 97.0857 17.586 96.8937 17.802C96.7017 18.018 96.4197 18.126 96.0477 18.126Z" fill="#2C2C2C"/>
</svg>
