<svg width="20" height="20" viewBox="0 0 20 20" fill="none" xmlns="http://www.w3.org/2000/svg">
<path d="M15 7.55338C15.0001 7.21818 14.9339 6.88627 14.8052 6.57677C14.6765 6.26727 14.4878 5.9863 14.25 5.75004C13.7634 5.28575 13.1167 5.02671 12.4442 5.02671C11.7716 5.02671 11.1249 5.28575 10.6383 5.75004L0.749987 15.6409C0.298669 16.1248 0.0528549 16.7651 0.0643506 17.4267C0.0758463 18.0883 0.343754 18.7196 0.811611 19.1876C1.27947 19.6556 1.91073 19.9236 2.57235 19.9353C3.23398 19.9469 3.87428 19.7013 4.35832 19.25L14.25 9.35921C14.4882 9.12271 14.6771 8.84135 14.8058 8.53138C14.9345 8.22142 15.0005 7.88901 15 7.55338ZM3.17999 18.0734C3.01153 18.234 2.78772 18.3235 2.55499 18.3235C2.32225 18.3235 2.09845 18.234 1.92999 18.0734C1.7645 17.9075 1.67157 17.6827 1.67157 17.4484C1.67157 17.214 1.7645 16.9893 1.92999 16.8234L8.40416 10.3484L9.65832 11.6025L3.17999 18.0734ZM13.0733 8.18004L10.8333 10.4209L9.58332 9.16671L11.8242 6.92671C11.904 6.83545 12.0018 6.76158 12.1114 6.70965C12.221 6.65772 12.3401 6.62885 12.4613 6.62483C12.5825 6.6208 12.7033 6.64171 12.8161 6.68626C12.9289 6.7308 13.0313 6.79804 13.1171 6.88379C13.2028 6.96955 13.2701 7.072 13.3146 7.1848C13.3592 7.2976 13.3801 7.41835 13.376 7.53956C13.372 7.66077 13.3431 7.77986 13.2912 7.88946C13.2393 7.99906 13.1654 8.09683 13.0742 8.17671L13.0733 8.18004ZM4.05249 2.37921L5.34416 2.01087L5.71249 0.719207C5.77183 0.511944 5.89704 0.329638 6.06919 0.199857C6.24134 0.0700761 6.45107 -0.00012207 6.66666 -0.00012207C6.88225 -0.00012207 7.09197 0.0700761 7.26412 0.199857C7.43627 0.329638 7.56149 0.511944 7.62082 0.719207L7.98916 2.01087L9.28082 2.37921C9.48809 2.43855 9.67039 2.56376 9.80017 2.73591C9.92995 2.90806 10.0002 3.11778 10.0002 3.33337C10.0002 3.54896 9.92995 3.75869 9.80017 3.93084C9.67039 4.10299 9.48809 4.2282 9.28082 4.28754L7.98916 4.65587L7.62082 5.94754C7.56149 6.1548 7.43627 6.33711 7.26412 6.46689C7.09197 6.59667 6.88225 6.66687 6.66666 6.66687C6.45107 6.66687 6.24134 6.59667 6.06919 6.46689C5.89704 6.33711 5.77183 6.1548 5.71249 5.94754L5.34416 4.65587L4.05249 4.28754C3.84523 4.2282 3.66292 4.10299 3.53314 3.93084C3.40336 3.75869 3.33316 3.54896 3.33316 3.33337C3.33316 3.11778 3.40336 2.90806 3.53314 2.73591C3.66292 2.56376 3.84523 2.43855 4.05249 2.37921ZM19.2808 14.2875L17.9892 14.6559L17.6208 15.9475C17.5615 16.1548 17.4363 16.3371 17.2641 16.4669C17.092 16.5967 16.8822 16.6669 16.6667 16.6669C16.4511 16.6669 16.2413 16.5967 16.0692 16.4669C15.897 16.3371 15.7718 16.1548 15.7125 15.9475L15.3442 14.6559L14.0525 14.2875C13.8452 14.2282 13.6629 14.103 13.5331 13.9308C13.4034 13.7587 13.3332 13.549 13.3332 13.3334C13.3332 13.1178 13.4034 12.9081 13.5331 12.7359C13.6629 12.5638 13.8452 12.4385 14.0525 12.3792L15.3442 12.0109L15.7125 10.7192C15.7718 10.5119 15.897 10.3296 16.0692 10.1999C16.2413 10.0701 16.4511 9.99988 16.6667 9.99988C16.8822 9.99988 17.092 10.0701 17.2641 10.1999C17.4363 10.3296 17.5615 10.5119 17.6208 10.7192L17.9892 12.0109L19.2808 12.3792C19.4881 12.4385 19.6704 12.5638 19.8002 12.7359C19.93 12.9081 20.0002 13.1178 20.0002 13.3334C20.0002 13.549 19.93 13.7587 19.8002 13.9308C19.6704 14.103 19.4881 14.2282 19.2808 14.2875ZM14.7958 2.08337L15.9258 1.76087L16.25 0.629207C16.3028 0.449055 16.4125 0.29085 16.5627 0.178301C16.7129 0.0657522 16.8956 0.00491967 17.0833 0.00491967C17.271 0.00491967 17.4537 0.0657522 17.6039 0.178301C17.7542 0.29085 17.8639 0.449055 17.9167 0.629207L18.2392 1.75921L19.3692 2.08171C19.5493 2.13447 19.7075 2.24418 19.8201 2.39442C19.9326 2.54466 19.9934 2.72732 19.9934 2.91504C19.9934 3.10276 19.9326 3.28542 19.8201 3.43566C19.7075 3.5859 19.5493 3.69562 19.3692 3.74837L18.2392 4.07087L17.9167 5.20337C17.8639 5.38353 17.7542 5.54173 17.6039 5.65428C17.4537 5.76683 17.271 5.82766 17.0833 5.82766C16.8956 5.82766 16.7129 5.76683 16.5627 5.65428C16.4125 5.54173 16.3028 5.38353 16.25 5.20337L15.9275 4.07421L14.7958 3.75004C14.6157 3.69728 14.4575 3.58756 14.3449 3.43733C14.2324 3.28709 14.1715 3.10443 14.1715 2.91671C14.1715 2.72899 14.2324 2.54632 14.3449 2.39609C14.4575 2.24585 14.6157 2.13613 14.7958 2.08337Z" fill="#2C2C2C"/>
</svg>
