<svg width="20" height="20" viewBox="0 0 20 20" fill="none" xmlns="http://www.w3.org/2000/svg">
<path d="M15.8333 0.833374H4.16667C3.062 0.834697 2.00296 1.27411 1.22185 2.05522C0.440735 2.83634 0.00132321 3.89538 0 5.00004L0 15.0001C0.00132321 16.1047 0.440735 17.1638 1.22185 17.9449C2.00296 18.726 3.062 19.1654 4.16667 19.1667H15.8333C16.938 19.1654 17.997 18.726 18.7781 17.9449C19.5593 17.1638 19.9987 16.1047 20 15.0001V5.00004C19.9987 3.89538 19.5593 2.83634 18.7781 2.05522C17.997 1.27411 16.938 0.834697 15.8333 0.833374ZM4.16667 2.50004H15.8333C16.4964 2.50004 17.1323 2.76343 17.6011 3.23228C18.0699 3.70112 18.3333 4.337 18.3333 5.00004V5.83338H1.66667V5.00004C1.66667 4.337 1.93006 3.70112 2.3989 3.23228C2.86774 2.76343 3.50362 2.50004 4.16667 2.50004ZM15.8333 17.5001H4.16667C3.50362 17.5001 2.86774 17.2367 2.3989 16.7678C1.93006 16.299 1.66667 15.6631 1.66667 15.0001V7.50005H18.3333V15.0001C18.3333 15.6631 18.0699 16.299 17.6011 16.7678C17.1323 17.2367 16.4964 17.5001 15.8333 17.5001ZM15.8333 10.8334C15.8333 11.0544 15.7455 11.2664 15.5893 11.4226C15.433 11.5789 15.221 11.6667 15 11.6667H5C4.77898 11.6667 4.56702 11.5789 4.41074 11.4226C4.25446 11.2664 4.16667 11.0544 4.16667 10.8334C4.16667 10.6124 4.25446 10.4004 4.41074 10.2441C4.56702 10.0878 4.77898 10 5 10H15C15.221 10 15.433 10.0878 15.5893 10.2441C15.7455 10.4004 15.8333 10.6124 15.8333 10.8334ZM12.5 14.1667C12.5 14.3877 12.4122 14.5997 12.2559 14.756C12.0996 14.9123 11.8877 15.0001 11.6667 15.0001H5C4.77898 15.0001 4.56702 14.9123 4.41074 14.756C4.25446 14.5997 4.16667 14.3877 4.16667 14.1667C4.16667 13.9457 4.25446 13.7337 4.41074 13.5775C4.56702 13.4212 4.77898 13.3334 5 13.3334H11.6667C11.8877 13.3334 12.0996 13.4212 12.2559 13.5775C12.4122 13.7337 12.5 13.9457 12.5 14.1667ZM2.5 4.16671C2.5 4.00189 2.54887 3.84078 2.64044 3.70373C2.73201 3.56669 2.86216 3.45988 3.01443 3.39681C3.1667 3.33374 3.33426 3.31723 3.49591 3.34939C3.65756 3.38154 3.80604 3.46091 3.92259 3.57745C4.03913 3.694 4.1185 3.84248 4.15065 4.00413C4.18281 4.16579 4.1663 4.33334 4.10323 4.48561C4.04016 4.63788 3.93335 4.76803 3.79631 4.8596C3.65927 4.95117 3.49815 5.00004 3.33333 5.00004C3.11232 5.00004 2.90036 4.91225 2.74408 4.75597C2.5878 4.59969 2.5 4.38772 2.5 4.16671ZM5 4.16671C5 4.00189 5.04887 3.84078 5.14044 3.70373C5.23201 3.56669 5.36216 3.45988 5.51443 3.39681C5.6667 3.33374 5.83426 3.31723 5.99591 3.34939C6.15756 3.38154 6.30604 3.46091 6.42259 3.57745C6.53913 3.694 6.6185 3.84248 6.65065 4.00413C6.68281 4.16579 6.6663 4.33334 6.60323 4.48561C6.54016 4.63788 6.43335 4.76803 6.29631 4.8596C6.15927 4.95117 5.99815 5.00004 5.83333 5.00004C5.61232 5.00004 5.40036 4.91225 5.24408 4.75597C5.0878 4.59969 5 4.38772 5 4.16671ZM7.5 4.16671C7.5 4.00189 7.54887 3.84078 7.64044 3.70373C7.73201 3.56669 7.86216 3.45988 8.01443 3.39681C8.1667 3.33374 8.33425 3.31723 8.4959 3.34939C8.65756 3.38154 8.80604 3.46091 8.92259 3.57745C9.03913 3.694 9.1185 3.84248 9.15065 4.00413C9.18281 4.16579 9.1663 4.33334 9.10323 4.48561C9.04016 4.63788 8.93335 4.76803 8.79631 4.8596C8.65926 4.95117 8.49815 5.00004 8.33333 5.00004C8.11232 5.00004 7.90036 4.91225 7.74407 4.75597C7.58779 4.59969 7.5 4.38772 7.5 4.16671Z" fill="#2C2C2C"/>
</svg>
